<?xml version="1.0" encoding="UTF-8"?>
<svg id="Layer_1" data-name="Layer 1" xmlns="http://www.w3.org/2000/svg" viewBox="0 0 275 275">
  <defs>
    <style>
      .cls-1 {
        fill: #1388c9;
      }

      .cls-2 {
        fill: #0f2b4d;
      }

      .cls-3 {
        fill: #0b70b7;
      }
    </style>
  </defs>
  <g>
    <g>
      <path class="cls-3" d="m122.8,86.36c.18-2.58,1.02-4.95,2.33-6.98l-43.75-37.79v91.6l43.76-37.8c-1.68-2.59-2.57-5.71-2.34-9.02Z"/>
      <path class="cls-3" d="m135.47,72.8v-14.43l-46.91-15.94,39.23,33.89c2.12-1.86,4.78-3.12,7.69-3.52Z"/>
      <path class="cls-3" d="m121.41,136.92l8.38-32.08c1.8.62,3.7,1.04,5.69,1.21v-4.09c-.3-.04-.59-.13-.89-.19-.16-.03-.32-.06-.47-.1-2.39-.56-4.55-1.67-6.32-3.22l-44.43,38.38,52.11,17.7v-17.62h-14.07Z"/>
    </g>
    <g>
      <path class="cls-1" d="m149.86,79.39c1.68,2.59,2.57,5.71,2.34,9.02-.18,2.58-1.02,4.95-2.33,6.98l43.75,37.79V41.59l-43.76,37.8Z"/>
      <path class="cls-1" d="m147.21,76.32l39.24-33.9-46.91,15.94v14.45c2.94.41,5.58,1.67,7.68,3.51Z"/>
      <path class="cls-1" d="m147.22,98.46c-1.79,1.57-3.97,2.67-6.34,3.23-.15.04-.3.07-.45.1-.3.06-.59.15-.89.19v4.06c1.97-.17,3.87-.58,5.68-1.2l8.38,32.08h-14.07v17.62l52.11-17.7-44.42-38.38Z"/>
    </g>
  </g>
  <g>
    <path class="cls-2" d="m21.38,217.61c0,5.57-1.14,9.46-3.28,11.9-1.98,2.29-5.26,3.89-9.54,3.89-3.66,0-7.17-.76-7.86-1.14l.46-9.08c.99.38,2.44.69,4.12.69,2.98,0,3.81-2.29,3.81-6.1v-51.73h12.28v51.58Z"/>
    <path class="cls-2" d="m48.46,219.52c-11.9,0-20.91-7.4-20.91-19.53s9-19.61,20.91-19.61,20.83,7.48,20.83,19.61-8.93,19.53-20.83,19.53Zm0-29.53c-5.42,0-8.55,4.2-8.55,9.77s3.13,9.77,8.55,9.77,8.55-4.2,8.55-9.77-3.2-9.77-8.55-9.77Z"/>
    <path class="cls-2" d="m111.33,218.68h-11.75l-.08-4.27c-1.6,2.29-5.57,5.11-10.99,5.11s-8.85-1.91-10.76-4.43c-1.83-2.59-2.75-5.87-2.75-11.29v-22.74h12.21v21.06c0,4.35,1.22,7.32,5.57,7.32s6.33-3.43,6.33-8.39v-19.99h12.21v37.61Z"/>
    <path class="cls-2" d="m144.14,192.28h-.53c-.69-.38-2.29-.92-4.43-.92-2.75,0-4.73,1.53-5.65,2.75-.92,1.22-1.91,3.66-1.91,7.86v16.71h-12.21v-37.61h12.21l-.08,5.34h.15c2.14-4.12,5.26-6.03,9.31-6.03,2.52,0,3.81.69,3.81.69l-.69,11.22Z"/>
    <path class="cls-2" d="m185.87,218.68h-12.21v-19.61c0-4.96-.76-8.7-5.8-8.7s-6.71,4.27-6.71,9.69v18.62h-12.21v-37.61h12.21l-.08,5.42h.15c2.06-3.36,5.49-6.1,10.91-6.1,10.91,0,13.73,7.02,13.73,16.1v22.2Z"/>
    <path class="cls-2" d="m230.5,202.81h-26.78c.53,5.42,4.65,7.86,9.61,7.86s9.16-2.14,11.29-3.59l4.81,6.33c-1.22.92-6.18,6.1-17.85,6.1s-20.07-7.17-20.07-19.61,9.16-19.53,20.29-19.53,18.85,7.4,18.85,18.39c0,1.83-.15,4.04-.15,4.04Zm-11.22-6.94c-.08-3.43-2.59-7.55-7.71-7.55s-7.63,3.97-7.78,7.55h15.49Z"/>
    <path class="cls-2" d="m274.3,181.07l-16.79,41.2c-2.75,6.71-5.8,10.83-12.21,10.83s-10.45-1.83-10.45-1.83l2.44-9s2.67.99,4.5.99c1.37,0,2.67,0,3.66-2.44l1.37-3.28-14.88-36.47h12.74l8.55,24.19,8.47-24.19h12.59Z"/>
  </g>
</svg>